<svg width="144" height="140" viewBox="0 0 144 140" fill="none" xmlns="http://www.w3.org/2000/svg">
<g clip-path="url(#clip0_210_1690)">
<path d="M0.5 70.0002C0.5 84.0789 4.56117 97.1547 11.4925 108.245V31.7559C4.56117 42.8457 0.5 55.9216 0.5 70.0002Z" fill="#434343"/>
<path d="M132.488 108.245C139.419 97.1547 143.48 84.0592 143.48 70.0002C143.48 55.9412 139.419 42.8457 132.488 31.7559V108.245Z" fill="#434343"/>
<path d="M55.5015 75.5056V0C51.7137 0.904494 48.0235 2.04494 44.509 3.53933V97.6657L55.5015 75.5056Z" fill="#434343"/>
<path d="M44.4895 119.826V136.461C48.0235 137.936 51.6942 139.096 55.482 140V97.666L44.4895 119.826Z" fill="#434343"/>
<path d="M88.4985 97.666V140C92.2863 139.096 95.9765 137.955 99.491 136.461V119.826L88.4985 97.666Z" fill="#434343"/>
<path d="M99.491 97.6657V3.53933C95.957 2.06461 92.2863 0.904494 88.4985 0V75.5056L99.491 97.6657Z" fill="#434343"/>
<path d="M110.503 9.39857V119.826L99.5105 97.6654V119.826L106.168 133.255C111.792 130.168 116.927 126.314 121.495 121.87V18.1092C118.137 14.8452 114.447 11.9351 110.503 9.37891V9.39857Z" fill="#434343"/>
<path d="M77.4865 53.3262H66.494L55.5015 75.5059V97.6661L72 64.4161L88.4985 97.6661V75.5059L77.4865 53.3262Z" fill="#434343"/>
<path d="M44.4895 97.6653L33.497 119.825V9.39844C29.553 11.9546 25.8628 14.8647 22.5045 18.1288V121.87C27.0929 126.295 32.2084 130.168 37.8315 133.255L44.4895 119.825V97.6653Z" fill="#434343"/>
<path d="M44.4895 97.666V119.826L55.5015 97.666V75.5059L44.4895 97.666Z" fill="#434343"/>
<path d="M88.4985 97.666L99.491 119.826V97.666L88.4985 75.5059V97.666Z" fill="#434343"/>
</g>
<defs>
<clipPath id="clip0_210_1690">
<rect width="143" height="140" fill="white" transform="translate(0.5)"/>
</clipPath>
</defs>
</svg>
